<?xml version="1.0" encoding="utf-8"?>
<!-- Generator: Adobe Illustrator 16.0.0, SVG Export Plug-In . SVG Version: 6.00 Build 0)  -->
<svg version="1.2" baseProfile="tiny" xmlns="http://www.w3.org/2000/svg" xmlns:xlink="http://www.w3.org/1999/xlink" x="0px"
	 y="0px" width="228px" height="242px" viewBox="0 0 228 242" xml:space="preserve">
<g id="piedra-1">
	<path fill-rule="evenodd" fill="#97C777" d="M131.316,18.604c-0.367,2.433-0.574,4.698-1.078,6.896
		c-0.513,2.229-2.164,3.801-3.943,5.049c-8.773,6.15-17.913,6.865-22.401-4.48c-0.494-1.249-0.978-2.564-1.104-3.884
		c-0.44-4.619-0.314-9.477,2.784-13.231c2.942-3.564,6.764-5.835,11.135-7.193c3.214-0.999,5.904,0.28,8.197,2.356
		c2.941,2.664,4.814,6.003,5.511,9.959C130.69,15.63,131.029,17.172,131.316,18.604C130.949,21.037,131.029,17.172,131.316,18.604z"
		/>
</g>
<g id="piedra-2">
	<path fill-rule="evenodd" fill="#A6CE8A" d="M148.293,35.707c-3.666,0.089-5.859-2.119-7.772-4.853
		c-1.531-2.189-1.992-4.669-1.988-7.229c0.007-3.762,1.731-6.611,5.104-8.321c6.109-3.098,12.116-6.299,16.647,0.763
		c4.381,6.827,1.783,13.654-4.7,17.481c-1.443,0.852-3.075,1.419-4.677,1.946C150.102,35.761,149.172,35.648,148.293,35.707
		C144.627,35.796,149.172,35.648,148.293,35.707z"/>
</g>
<g id="piedra-3">
	<path fill-rule="evenodd" fill="#B6D69E" d="M159.887,44.744c1.169-1.056,2.287-2.176,3.521-3.148
		c1.223-0.962,2.531-1.829,3.863-2.636c5.561-3.367,12.43-3.317,18.617-1.969c2.911,0.635,5.504,1.885,7.982,3.453
		c4.578,2.897,8.188,6.885,11.729,10.869c2.786,3.135,5.131,6.668,7.601,10.075c1.469,2.024,2.877,4.101,4.168,6.242
		c0.952,1.579,1.693,3.288,2.488,4.958c1.739,3.652,3.084,7.07,4.125,10.981c0.426,1.602,0.932,3.188,1.279,4.806
		c0.508,2.357,0.891,4.742,1.355,7.109c0.638,3.245,0.061,6.432-0.551,9.587c-0.287,1.478-1.521,4.893-2.447,6.028
		c-3.682,4.511-7.295,7.984-12.568,10.537c-2.273,1.101-4.699,1.886-6.997,2.939c-1.485,0.683-3.181,0.429-4.547,0.935
		c-3.124,1.157-6.329,0.98-9.501,1.332c-1.852,0.205-3.738,0.567-5.566,0.402c-3.54-0.319-7.051-0.96-10.574-1.47
		c-0.471-0.068-0.937-0.174-1.408-0.228c-4.123-0.466-7.971-4.061-10.283-7.214c-1.666-2.272-3.036-4.812-4.193-7.388
		c-1.641-3.653-2.178-8.372-2.945-12.307c-1.85-9.5-0.35-20.161,0.473-29.704c0.146-1.705,0.116-3.426,0.279-5.128
		c0.184-1.915,0.467-3.821,0.76-5.722C157.271,53.378,158.653,49.282,159.887,44.744L159.887,44.744z"/>
</g>
<g id="piedra-4">
	<path fill-rule="evenodd" fill="#749A5E" d="M96.264,49.537c-0.003,1.38-0.137,2.665-0.79,4.19
		c-2.792,6.521-8.313,13.063-13.302,18.053c-2.395,2.396-4.732,4.853-7.676,6.651c-1.555,0.95-2.853,2.311-4.346,3.375
		c-1.333,0.948-2.767,1.755-4.17,2.601c-4.677,2.817-9.691,6.012-14.902,7.759c-2.376,0.797-4.862,1.333-7.135,2.352
		c-2.04,0.915-4.094,0.875-6.186,0.913c-1.827,0.033-3.68,0.136-5.473-0.125c-1.047-0.153-1.986-0.989-3.001-1.458
		c-0.334-0.154-0.756-0.122-1.137-0.174c-0.773-0.797-1.625-1.534-2.293-2.412c-4.267-5.604-2.69-13.971-1.64-20.353
		c1.234-7.498,2.687-14.078,5.765-21.09c1.292-2.943,2.791-5.767,4.677-8.379c1.444-2,2.707-4.154,4.321-6.003
		c3.693-4.23,7.436-8.652,12.041-11.949c5.002-3.583,12.291-8.034,18.681-7.619c3.085,0.201,6.222-0.074,9.265,0.359
		c2.083,0.297,4.159,1.244,6.027,2.281c2.054,1.141,4.082,2.506,5.722,4.167c1.696,1.718,3.217,3.761,4.272,5.927
		c3.069,6.302,1.15,11.86,1.231,18.416C96.225,47.931,96.266,48.75,96.264,49.537z"/>
</g>
<g id="piedra-5">
	<path fill-rule="evenodd" fill="#84BE60" d="M104.695,63.587c0.009-0.038,0.018-0.075,0.028-0.113
		c-0.003,0.171-0.009,0.341-0.02,0.512c0.349-5.213,1.736-10.359,3.857-15.126c0.571-1.283,1.091-2.627,1.896-3.757
		c1.761-2.474,4.105-5.282,6.807-6.791c2.527-1.41,5.304-2.124,8.196-1.633c2.051,0.349,4.127,0.843,6.037,1.641
		c2.313,0.966,4.475,2.302,6.682,3.514c1.023,0.562,2.159,1.049,2.964,1.852c8.147,8.127,10.483,21.715,7.622,32.618
		c-0.516,1.965-1.871,3.696-2.535,5.64c-0.816,2.393-2.686,3.833-4.51,5.155c-1.49,1.08-3.192,2.024-5.177,2.367
		c-2.085,0.361-4.151,0.941-6.259,0.633c-2.415-0.353-4.786-0.992-7.189-1.435c-2.667-0.492-4.825-2.07-7.028-3.43
		C109.131,80.957,102.667,72.143,104.695,63.587z"/>
</g>
<g id="piedra-6">
	<path fill-rule="evenodd" fill="#748D67" d="M6.356,96.374c0.287-4.949,1.898-8.608,4.278-11.982
		c1.684-2.387,5.412-3.989,6.777-0.12c0.721,2.046,0.629,4.058,0.395,6.117c-0.207,1.816-0.427,3.631-0.675,5.443
		c-0.489,3.574-2.547,6.514-5.491,8.528C8.562,106.468,6.75,97.931,6.356,96.374C6.643,91.425,6.599,97.332,6.356,96.374z"/>
</g>
<g id="piedra-7">
	<path fill-rule="evenodd" fill="#A6CE8A" d="M152.035,115.245c-0.031,0.051-0.064,0.101-0.1,0.148
		c-0.639,0.862-1.855,0.828-2.795,0.605c-1.397-0.331-2.615-1.074-3.83-1.81c-0.679-0.412-1.354-0.839-2.05-1.221
		c-4.384-2.401-7.96-8.008-8.952-12.826c-0.275-1.331-0.318-2.811,0.792-3.661c1.117-0.855,2.507-1.048,4.063-0.61
		c3.764,1.059,6.689,3.332,9.168,6.15c1.698,1.933,3.309,4.037,3.914,6.686c0.225,0.986,0.369,1.989,0.365,3.002
		c-0.002,0.807-0.008,1.67-0.17,2.463C152.368,114.531,152.234,114.923,152.035,115.245z"/>
</g>
<g id="piedra-8">
	<path fill-rule="evenodd" fill="#73B84C" d="M86.105,84.994c8.068,0,15.521,3.334,22.562,7.063
		c1.827,0.967,3.614,2.019,5.362,3.124c1.941,1.228,3.865,2.496,5.71,3.862c6.139,4.544,12.558,10.191,17.266,16.224
		c2.994,3.837,6.057,7.758,8.391,12.044c0.945,1.736,1.795,3.55,2.455,5.411c1.371,3.869,2.176,7.887,2.189,11.996
		c0.006,1.808-0.463,3.618-0.719,5.427c-0.453,3.216-2.045,5.939-3.656,8.677c-3.408,5.789-9.426,9.395-14.958,12.806
		c-1.44,0.888-2.882,1.78-4.377,2.567c-0.892,0.47-1.878,0.767-2.837,1.096c-2.241,0.769-4.485,1.526-6.738,2.258
		c-4.13,1.338-9.372,3.404-13.769,2.2c-0.683-0.187-1.419-0.178-2.132-0.251c-3.38-0.351-6.575-1.336-9.627-2.809
		c-2.196-1.059-4.497-1.948-6.558-3.225c-3.404-2.106-6.453-4.732-9.104-7.724c-1.802-2.034-3.309-4.345-4.816-6.619
		c-1.324-1.997-2.468-4.115-3.684-6.184c-0.952-1.624-1.536-3.719-2.152-5.486c-0.803-2.302-1.559-4.62-2.302-6.942
		c-0.54-1.685-1.073-3.374-1.521-5.084c-0.25-0.955-0.326-1.957-0.47-2.939c-0.586-4.014-1.333-8.02-1.072-12.099
		c0.112-1.738,0.408-3.473,0.748-5.183c0.699-3.515,1.743-6.691,3.124-9.981c0.364-0.868,0.71-1.747,1.136-2.584
		c1.584-3.125,3.112-6.284,4.838-9.331c0.85-1.5,1.991-2.87,3.175-4.136c1.041-1.112,2.354-1.893,3.897-2.306
		c1.162-0.311,2.233-0.949,3.37-1.376c0.622-0.233,1.291-0.436,1.947-0.468c1.437-0.07,2.879-0.021,4.319-0.021
		C86.105,85,86.105,84.997,86.105,84.994C87.225,84.994,86.105,84.997,86.105,84.994z"/>
</g>
<g id="piedra-9">
	<path fill-rule="evenodd" fill="#C8DFB7" d="M163.719,188.75c-0.004-0.076-0.012-0.152-0.022-0.229
		c-0.718-1.938-1.978-3.747-3.321-5.312c-2.051-2.388-2.807-5.341-3.795-8.186c-0.578-1.664-0.974-3.413-1.259-5.155
		c-0.927-5.664-2.749-12.593-0.769-18.204c1.181-3.346,1.321-6.523,3.329-9.631c0.798-1.233,1.932-2.341,3.134-3.199
		c3.451-2.463,6.719-3.647,10.902-4.328c1.641-0.267,3.311-0.374,4.969-0.526c3.438-0.314,6.877-0.86,10.316-0.865
		c7.151-0.011,14.314-0.465,21.455,0.609c2.991,0.45,5.902,1.104,8.601,2.357c2.11,0.979,4.028,2.415,5.941,3.775
		c5.53,3.935,2.8,11.638,1.81,17.028c-0.082,0.449-0.354,0.86-0.465,1.307c-0.439,1.784-0.852,3.575-1.273,5.363
		c-0.013,0.312-0.024,0.624-0.037,0.936c-0.389,0.592-0.878,1.142-1.145,1.783c-0.557,1.345-1.018,2.731-1.479,4.113
		c-0.434,1.306-0.814,2.628-1.219,3.943c-1.026,0.754-1.545,1.848-1.556,3.281c-1.334,2.49-2.786,4.916-4.161,7.384
		c-0.317,0.57-0.512,1.209-0.762,1.816c-1.034,1.365-2.067,2.729-3.102,4.095c-0.006,0.076-0.01,0.152-0.014,0.229
		c-0.852,0.739-1.752,1.431-2.543,2.229c-0.961,0.969-1.83,2.028-2.738,3.049c-1.058,0.317-1.965,0.823-2.406,1.914
		c-1.037,0.644-2.073,1.287-3.109,1.931c-1.896,0.715-3.657,1.685-5.517,2.179c-0.24-0.005-0.48-0.011-0.721-0.016
		c-2.055,0.002-4.116,0.107-6.163-0.023c-2.242-0.145-4.436-0.608-6.454-1.709c-0.257-0.14-2.392-0.994-2.505-0.908
		c-0.153-0.006-0.308-0.013-0.462-0.019c-0.647-0.471-1.296-0.942-1.943-1.413c-0.22-0.225-0.411-0.491-0.664-0.665
		c-1.332-0.911-2.792-1.672-3.997-2.725c-2.077-1.814-3.994-3.812-5.994-5.714C164.348,189.023,164.009,188.913,163.719,188.75
		C163.715,188.674,164.009,188.913,163.719,188.75z"/>
</g>
<g id="piedra-10">
	<path fill-rule="evenodd" fill="#77AA57" d="M70.212,211.625c-4.312-0.101-8.553-0.72-12.739-1.771
		c-1.93-0.484-3.925-0.742-5.819-1.334c-2.526-0.79-4.995-1.772-7.464-2.733c-1.789-0.696-3.62-1.348-5.286-2.279
		c-2.311-1.294-4.655-2.628-6.677-4.314c-2.96-2.47-5.851-5.086-8.393-7.974c-2.607-2.961-4.839-6.269-7.087-9.526
		c-1.755-2.544-3.317-5.224-4.892-7.886c-2.121-3.585-3.247-8.534-4.491-12.499c-1.388-4.426-2.234-8.982-2.048-13.631
		c0.245-6.158,0.82-12.701,2.33-18.688c0.686-2.72,1.745-5.347,2.669-8.004c0.949-2.728,2.293-5.247,4.283-7.358
		c2.244-2.38,4.757-4.376,7.787-5.754c5.199-2.363,9.616-0.603,13.814,2.39c1.547,1.103,3.202,2.229,4.33,3.708
		c2.109,2.767,4.125,5.668,5.707,8.757c1.668,3.258,2.85,6.774,4.115,10.226c2.167,5.91,3.417,11.959,6.468,17.547
		c2.228,4.079,5.351,7.363,8.374,10.779c1.421,1.605,2.662,3.379,3.897,5.137c2.302,3.277,4.583,6.571,6.783,9.916
		c1.925,2.927,3.469,6.433,4.815,9.65c0.96,2.292,1.794,4.638,2.635,6.978c1.95,5.425,2.5,14.118-3.713,16.826
		C76.584,211.104,73.484,211.705,70.212,211.625C65.899,211.524,73.484,211.705,70.212,211.625z"/>
</g>
<g id="piedra-11">
	<path fill-rule="evenodd" fill="#A6CE8A" d="M148.476,218.866c-4.628-0.221-8.153-2.25-10.938-5.677
		c-3.939-4.849-6.202-9.092-6.004-15.432c0.119-3.771,1.83-6.768,4.986-8.67c2.461-1.483,6.069-2.567,8.886-3.012
		c11.851-1.876,22.541,12.523,17.7,23.116c-2.277,4.979-6.615,7.558-11.566,9.235C150.543,218.765,149.425,218.74,148.476,218.866
		C143.848,218.646,149.425,218.74,148.476,218.866z"/>
</g>
<g id="piedra-12">
	<path fill-rule="evenodd" fill="#85BE60" d="M135.32,219.318c2.73,4.141,4.615,9.089,2.031,13.057
		c-1.284,1.972-3.244,3.347-5.381,3.757c-5.172,0.995-10.41,1.863-15.658,2.181c-9.245,0.56-18.474,1.307-27.289-2.137
		c-7.488-2.925-3.727-13.162-0.576-18.228c0.5-0.803,0.985-1.615,1.469-2.429c0.724-1.219,1.347-2.51,2.183-3.646
		c1.139-1.549,2.387-3.024,3.677-4.45c4.843-5.352,8.315-12.638,16.338-8.753c0.978,0.474,1.919,1.021,2.876,1.535
		c0.13,0.187,0.226,0.416,0.396,0.553c5.219,4.201,10.84,8.024,15.439,12.939C132.205,215.173,133.881,217.133,135.32,219.318z"/>
</g>
</svg>
