<?xml version="1.0" encoding="utf-8"?>
<!-- Generator: Adobe Illustrator 23.0.1, SVG Export Plug-In . SVG Version: 6.00 Build 0)  -->
<svg version="1.1" id="Layer_1" xmlns="http://www.w3.org/2000/svg" xmlns:xlink="http://www.w3.org/1999/xlink" x="0px" y="0px"
	 viewBox="0 0 366 366" style="enable-background:new 0 0 366 366;" xml:space="preserve">
<style type="text/css">
	.st0{fill:none;}
	.st1{fill:none;stroke:#FFFFFF;stroke-width:4.931507e-02;}
	.st2{fill:#D0D7DD;}
	.st3{fill:none;stroke:#8C9298;stroke-width:0.25;}
</style>
<g id="Group_7904" transform="translate(-62 -62)">
	<g id="Group_7903" transform="translate(-6 23)">
		<g id="Ellipse_39615" transform="translate(86 57)">
			<circle class="st0" cx="165" cy="165" r="9"/>
			<circle class="st1" cx="165" cy="165" r="9"/>
		</g>
		<g id="Group_7055" transform="translate(0 0)">
			<path id="Path_433" class="st2" d="M242.7,218.5c-1.1,2.5,0,0.4,0,0.4l0.3,0.2v0.8l0.4,0.6h0.3v-0.2l-0.3-0.5l-0.1-0.6h0.2
				l0.1,0.7l0.5,0.6l-0.1,0.3l0.3,0.5l0.8,0.2v-0.2l0.3,0.1v0.2l0.6,0.2l0.5,0.6l0.7,0.1l0.1,0.5l-0.5,0.3l-0.1,0.8l0.7,0.8l0.1,0.3
				h0.3l0.5,0.4v1.6l0.2,0.1l-0.1,0.7l0.3,0.4l-0.1,0.7l0.4,0.7l0.6,0.5h0.5l0.1-0.2l-0.4-0.4l0.1-0.5h-0.3l-0.1-0.2l0.2-0.2v-0.2
				l-0.2-0.1v-0.2l0.3,0.1l0.6-0.3l0.7-1.1l-0.1-0.5l0.1-0.3h0.5l0.4-0.2l0.1-1.1l0.4-0.6v-0.3l-0.3-0.1l-0.2-0.4h-0.8l-0.6-0.2V223
				l-0.2-0.4h-0.6l-0.3-0.5l-0.3-0.1v0.1h-0.6l-0.1-0.3l-0.6-0.1l-0.4,0.5l-0.7-0.2l-0.1-0.8l-0.5-0.1l0.3-0.3l-0.1-0.3l-0.7,0.4
				h-0.5l-0.1-0.4l0.4-0.8l0.5-0.2h1.1v0.3l0.4,0.2v-0.6l0.8-0.6v-0.3l0.6-0.6l0.6-0.3v-0.2l0.3-0.3l0.2,0l0,0.1l0.2-0.2l-0.4-0.1
				v-0.2l0.1-0.1h0.2l0.1,0.2l0.4-0.1V217l0.2,0v0.2l-0.1,0.1v0.1l0.5,0.2h0.2v-0.2l-0.4-0.2v-0.1l0.3-0.1v-0.4l-0.3-0.2v-0.5
				l-0.4,0.2h-0.2l0-0.4l-0.6-0.1l-0.3,0.2v0.6l-0.5,0.2l-0.2,0.4l-0.2,0v-0.5l-0.5,0l-0.2-0.2l-0.1-0.4l0.8-0.4l0.4-0.1l0,0.2h0.3
				l0-0.1l0.2,0v-0.1l-0.1,0v-0.1h0.3l0.2-0.3l0.6-0.1l0.2,0.2l-0.7,0.4l0.9,0.2l0.1-0.3h0.4l0.2-0.3l-0.3,0v-0.4l-0.8-0.4l-0.6,0.1
				l-0.3,0.2v0.4l-0.3,0l0-0.2l0.3-0.3h-0.7l-0.1,0l-0.1,0.2l0.2,0.1l0,0.2h-0.4l0,0.1h-0.6v-0.3h0.4l0.3-0.3l-0.2-0.1l-0.2,0.3
				h-0.4l-0.2-0.3h-0.5l-0.5,0.4h0.5l0,0.1l-0.1,0.1l0.5,0l0.1,0.2h-0.7l0-0.2l-0.4-0.1l-0.2-0.1h-0.5
				C245.7,214.7,243.8,216,242.7,218.5z"/>
			<path id="Path_434" class="st2" d="M249.7,217.7l0.1,0.1v0.2h-0.2L249.7,217.7z"/>
			<path id="Path_435" class="st2" d="M250,217.7h0.2l0.1-0.1h0.2l0,0.1h-0.2v0.1l-0.1,0.1H250v-0.1h0L250,217.7z"/>
			<path id="Path_436" class="st2" d="M255.1,216.4l0.2,0.1v0.2l-0.4,0.3h-0.2v-0.2l0.2-0.3L255.1,216.4z"/>
			<path id="Path_437" class="st2" d="M255.2,216.1l-0.1,0.1v0.2l0.3,0.2v0.1l-0.2,0.1v0.3h0.6l0.2-0.2l-0.2,0l-0.3-0.4l-0.1-0.3
				L255.2,216.1z"/>
			<path id="Path_438" class="st2" d="M259.4,218.8h-0.5l-0.2-0.2v-0.4l-0.3,0.1l-0.1,0.5l-0.4-0.3V218l-0.4-0.3l0-0.1h-0.4l0.1,0.3
				l0.4,0.3l0.1,0.1l-0.1,0v0.3l-0.2,0.1l-0.2-0.1l-0.1-0.2h0.3l0.1-0.1l-0.7-0.5l0-0.2l-0.3,0.3l-0.3-0.1l-0.4,0.6l-0.1,0.2h-0.8
				l-0.2-0.1l-0.1-0.5l0.1-0.2l0.4-0.1l0.4,0.1l0-0.3l-0.2,0l0.1-0.4l0.5-0.1l0.3-0.5l0.3-0.1l0.4,0.1l-0.1-0.5l-0.4,0.2l-0.1-0.3
				l-0.3-0.1v-0.2l0.2-0.2l0.1-0.1l0.3-0.1l0.1-0.2C256.9,215.3,258.5,216.5,259.4,218.8"/>
			<path id="Path_439" class="st2" d="M259.6,219.5L259.6,219.5l-0.8,0l-0.4-0.3l-0.5,0.1v0.3h-0.1l-0.1-0.1l-0.8-0.2v-0.5l-1,0.1
				l-0.3,0.2H255l-0.5,0.2v0.5l-1,0.7l0.1,0.3h0.2l0,0.3l-0.1,0v0.8l0.8,0.9h0.4v-0.1h0.7l0.2-0.2h0.4l0.2,0.2l0.6,0l-0.1,0.8
				l0.6,1.1l-0.3,0.6v0.3l0.3,0.2v0.7l0.4,0.5v0.6h0.3c0,0,1.6-1.6,2-4.6"/>
			<path id="Path_440" class="st2" d="M259.6,219.5c0,0,0.5,1.6,0.3,3.6"/>
		</g>
		<g id="Ellipse_39615-2" transform="translate(86 57)">
			<circle class="st3" cx="165" cy="165" r="9"/>
		</g>
	</g>
</g>
</svg>
