<svg xmlns="http://www.w3.org/2000/svg" width="238.701" height="111.464" viewBox="0 0 238.701 111.464">
  <g id="Group_7985" data-name="Group 7985" transform="translate(-582.858 -595.924)">
    <g id="Group_7980" data-name="Group 7980" transform="translate(47.019 4.082)">
      <g id="Group_7979" data-name="Group 7979" transform="translate(535.839 591.842)">
        <path id="Path_924" data-name="Path 924" d="M1476.269,228.869v2.56h-18.4l4.631,4.692-1.828,1.829-7.8-7.8,7.8-7.8,1.828,1.828-4.631,4.693Z" transform="translate(-1452.867 -205.47)" fill="#a0a0a0"/>
        <path id="Path_925" data-name="Path 925" d="M1492.825,228.869v2.56h18.4l-4.631,4.692,1.828,1.829,7.8-7.8-7.8-7.8-1.828,1.828,4.631,4.693Z" transform="translate(-1466.85 -205.47)" fill="#a0a0a0"/>
        <path id="Path_926" data-name="Path 926" d="M1485.366,219.786v-18.4l-4.693,4.632-1.828-1.829,7.8-7.8,7.8,7.8-1.829,1.829-4.693-4.632v18.4Z" transform="translate(-1461.958 -196.384)" fill="#a0a0a0"/>
        <path id="Path_927" data-name="Path 927" d="M1487.926,236.322v18.4l4.693-4.632,1.829,1.829-7.8,7.8-7.8-7.8,1.828-1.829,4.693,4.632v-18.4Z" transform="translate(-1461.958 -210.36)" fill="#a0a0a0"/>
      </g>
      <path id="Path_928" data-name="Path 928" d="M1518.8,256.662c5.555,2.318,11.086,4.7,16.67,6.944,13.373,5.382,26.785,10.666,40.134,16.106,1.231.5,2.942,1.27,2.956,2.793.014,1.457-1.445,2.435-2.593,3.156-3.915,2.461-7.974,4.693-12.378,7.245,2.693,2.613,5.255,5.059,7.772,7.551q5.322,5.267,10.587,10.592c2.124,2.15,2.143,3.061.109,5.144-2.491,2.55-5.067,5.019-7.538,7.589-1.748,1.819-3.265,1.679-4.992-.075-5.314-5.4-10.708-10.722-16.046-16.1a32.3,32.3,0,0,1-2.069-2.609c-2.711,4.7-5.009,8.887-7.541,12.93-.661,1.054-1.365,2.471-3.109,2.272-1.594-.181-2.078-1.5-2.517-2.581-7.558-18.731-15-37.508-22.525-56.253-.634-1.581-.9-2.748.107-3.885A2.921,2.921,0,0,1,1518.8,256.662ZM1570.8,283.02l-48.846-19.472c6.6,16.536,12.957,32.474,19.489,48.841,2.4-4.15,4.464-7.788,6.6-11.383,1.539-2.593,2.937-2.782,5.067-.722,1.987,1.921,3.916,3.9,5.87,5.858l12.976,12.991,5.687-5.545c-6.344-6.315-12.612-12.522-18.84-18.768-2.226-2.233-2.028-3.627.693-5.237C1563.083,287.456,1566.713,285.385,1570.8,283.02Z" transform="translate(-936.88 377.722)" fill="#a0a0a0"/>
    </g>
    <g id="Group_7981" data-name="Group 7981" transform="translate(2.095 12.739)">
      <path id="Path_930" data-name="Path 930" d="M1532.5,512.345v-13.02l-4.013,3.961-1.563-1.563,6.672-6.672,6.672,6.672-1.564,1.563-4.013-3.961v13.02Z" transform="translate(-751.03 99.761)" fill="#8f9294"/>
      <path id="Path_931" data-name="Path 931" d="M1534.689,534.883V547.9l4.013-3.961,1.564,1.563-6.672,6.672-6.672-6.672,1.563-1.563,4.013,3.961V534.883Z" transform="translate(-751.03 82.074)" fill="#8f9294"/>
      <rect id="Rectangle_1408" data-name="Rectangle 1408" width="66.801" height="104.15" rx="33.4" transform="translate(749.164 587)" fill="none" stroke="#a0a0a0" stroke-miterlimit="10" stroke-width="7"/>
    </g>
  </g>
</svg>
