<svg xmlns="https://www.w3.org/2000/svg" width="125.393" height="58.934" viewBox="0 0 125.393 58.934">
  <g id="Group_7999" data-name="Group 7999" transform="translate(30 -324.33)">
    <g id="Group_7657" data-name="Group 7657" transform="translate(-28.027 335.245)">
      <path id="Path_636" data-name="Path 636" d="M49.22,161.942l.019.029a.573.573,0,0,0,.5.277.517.517,0,0,0,.287-.076l.01-.01a.607.607,0,0,0,.277-.353.591.591,0,0,0-.057-.439h0c-.2-.325-.831-1.481-1.29-2.474-1.06-2.3-.994-3.057-.946-3.239l.019-.048c.239-.592.8-2.149,1.3-3.716a18.316,18.316,0,0,0,1-4.423v-9.123a2.6,2.6,0,0,0-2.6-2.6,2.425,2.425,0,0,0-.927.172l-.525.22v-.659a3.516,3.516,0,0,0-5.3-3.028l-.573.344v-.879a3.537,3.537,0,0,0-5.312-3.038l-.573.344V117.816a3.52,3.52,0,1,0-7.041,0v16.193l-.239.1c-4.2,1.691-5.741,3.63-5.751,3.649a4.706,4.706,0,0,0-.774,3.582,8.373,8.373,0,0,0,.525,1.968c1.232,2.818,2.006,4.863,2.579,6.353a20.7,20.7,0,0,0,1.519,3.468,10.87,10.87,0,0,0,2.446,2.579c2.063,1.309,6.429,6.076,6.678,6.353h0a.56.56,0,0,0,.42.191.574.574,0,0,0,.42-.955c-.191-.21-4.681-5.13-6.926-6.544a8.088,8.088,0,0,1-2.369-2.57,47.059,47.059,0,0,1-3.076-7.49c-.306-.869-.545-1.557-.659-1.815-.611-1.395-.888-3.468.344-4.7a13.98,13.98,0,0,1,4.318-2.742l.545-.248v9.095a1.281,1.281,0,0,0,.067.344.559.559,0,0,0,.631.267.58.58,0,0,0,.439-.554v-26.52a2.369,2.369,0,1,1,4.738,0v16.508a.573.573,0,0,0,1.146,0V131.84a2.37,2.37,0,0,1,4.738.086v3.582a.573.573,0,0,0,1.146-.019,2.369,2.369,0,0,1,4.738,0v2.866a.573.573,0,1,0,1.146,0,1.452,1.452,0,1,1,2.9,0v9.152c-.019,1.643-1.653,6.3-2.216,7.709-.306.774-.01,2.083.927,4.127A23.5,23.5,0,0,0,49.22,161.942Zm-.01-.01Zm-.459-6.095Z" transform="translate(-20.662 -114.3)" fill="#a0a0a0"/>
    </g>
    <g id="Group_7658" data-name="Group 7658" transform="translate(-30 324.33)">
      <path id="Path_637" data-name="Path 637" d="M5.787,19.487a.639.639,0,0,0,.248.048A.614.614,0,0,0,6.3,18.369,9.015,9.015,0,1,1,17.882,5.434l.955,1.509L14.92,5.7a.772.772,0,0,0-.191-.029.622.622,0,0,0-.191,1.213l5.541,1.767.019.01a.727.727,0,0,0,.2.029.6.6,0,0,0,.6-.525l.745-5.761V2.368l.01-.038V2.3a.622.622,0,0,0-1.232-.115v.038L19.9,6.313l-.955-1.519A10.269,10.269,0,0,0,1.613,15.819a10.08,10.08,0,0,0,4.156,3.659Z" transform="translate(-0.009 -0.041)" fill="#a0a0a0"/>
    </g>
    <g id="Group_7998" data-name="Group 7998" transform="translate(49.175 335.316)">
      <g id="Group_7653" data-name="Group 7653" transform="translate(0 11.514)">
        <path id="Path_633" data-name="Path 633" d="M.487,128.8h.1l5.283-.545a.59.59,0,0,0,.382-.21.553.553,0,0,0,.124-.42.613.613,0,0,0-.21-.392.553.553,0,0,0-.42-.124L2.1,127.5l6.018-6.009a.564.564,0,1,0-.8-.793L1.309,126.7l.382-3.64a.57.57,0,0,0-.516-.631.57.57,0,0,0-.631.516L0,128.164v.1l.019.038v.067h0v.01a.072.072,0,0,1,.01.038l.019.048v.019l.019.029.067.067v.029l.01.019.019.019.048.048.057.038c.01.01.019.01.038.019h.01c.01,0,.019.01.029.01h0l.048.019H.411A.191.191,0,0,0,.487,128.8Zm-.172-.048Z" transform="translate(0 -120.524)" fill="#a0a0a0"/>
      </g>
      <g id="Group_7654" data-name="Group 7654" transform="translate(11.127 0.01)">
        <path id="Path_634" data-name="Path 634" d="M123.012,1.409,116.64,7.781a.571.571,0,0,0,.822.793l6.362-6.362-.382,3.64a.564.564,0,0,0,.124.42.592.592,0,0,0,.373.21c.038,0,.067.01.086.01a.576.576,0,0,0,.554-.516L125.123.73a.612.612,0,0,0-.162-.478l-.029-.029-.076-.048a.033.033,0,0,1-.019-.01c-.019-.01-.029-.01-.048-.019h-.01c-.019,0-.029-.01-.048-.019a.138.138,0,0,1-.067-.019h0A.634.634,0,0,1,124.54.1h-.057l-5.226.545a.57.57,0,0,0-.506.631.584.584,0,0,0,.63.516Z" transform="translate(-116.475 -0.1)" fill="#a0a0a0"/>
      </g>
      <g id="Group_7655" data-name="Group 7655" transform="translate(13.646)">
        <path id="Path_635" data-name="Path 635" d="M174.3,47.642l.019.029a.573.573,0,0,0,.5.277.517.517,0,0,0,.287-.076l.01-.01a.607.607,0,0,0,.277-.353.591.591,0,0,0-.057-.439h0c-.2-.315-.831-1.481-1.29-2.474-1.06-2.3-.994-3.057-.946-3.239l.019-.048c.239-.592.8-2.14,1.3-3.716a18.315,18.315,0,0,0,1-4.423V24.026a2.6,2.6,0,0,0-2.6-2.6,2.425,2.425,0,0,0-.927.172l-.525.22V21.16a3.516,3.516,0,0,0-5.3-3.028l-.573.344V17.6a3.537,3.537,0,0,0-5.312-3.038l-.573.344V3.516a3.52,3.52,0,1,0-7.041,0V27.781l-.707-1.146a32.349,32.349,0,0,0-2.952-4.137,3.968,3.968,0,0,0-4.71-1.06,2.15,2.15,0,0,0-1.2,2.78v.01a1.138,1.138,0,0,0,.153.306c.65,1.07,1.452,2.837,2.312,4.71l.143.306c2.169,4.777,4.614,10.184,7.26,11.846,2.054,1.3,6.439,6.085,6.687,6.362h0a.56.56,0,0,0,.42.191.574.574,0,0,0,.42-.955c-.191-.21-4.691-5.14-6.936-6.553-2.369-1.481-4.939-7.184-6.821-11.349-.869-1.92-1.767-3.907-2.5-5.13a.458.458,0,0,1-.086-.182,1,1,0,0,1,.554-1.28,2.817,2.817,0,0,1,3.43.745,41.507,41.507,0,0,1,4.528,6.936l.038.076v.01l.019.029a.56.56,0,0,0,.64.287.571.571,0,0,0,.439-.554V3.516a2.369,2.369,0,0,1,4.738,0V20.023a.573.573,0,1,0,1.146,0V17.54a2.37,2.37,0,0,1,4.738.086v3.582a.573.573,0,0,0,1.146-.019,2.369,2.369,0,1,1,4.738,0v2.866a.573.573,0,0,0,1.146,0,1.452,1.452,0,0,1,2.9,0v9.152c-.019,1.643-1.653,6.3-2.216,7.709-.306.774-.01,2.083.927,4.127C173.546,46.333,174.2,47.489,174.3,47.642Zm-.01-.01Zm-.449-6.095Z" transform="translate(-142.846)" fill="#a0a0a0"/>
      </g>
    </g>
  </g>
</svg>
